<?xml version="1.0" encoding="utf-8"?>
<!-- Generator: Adobe Illustrator 16.0.3, SVG Export Plug-In . SVG Version: 6.00 Build 0)  -->
<!DOCTYPE svg PUBLIC "-//W3C//DTD SVG 1.1//EN" "http://www.w3.org/Graphics/SVG/1.1/DTD/svg11.dtd">
<svg version="1.1" id="Ebene_1" xmlns="http://www.w3.org/2000/svg" xmlns:xlink="http://www.w3.org/1999/xlink" x="0px" y="0px"
	 width="715px" height="194px" viewBox="0 0 715 194" enable-background="new 0 0 715 194" xml:space="preserve">
<g>
	<path fill="#3A4747" d="M6,178.988l17.336-56.668h16.832l3.791,21.948c0.232,1.342,0.445,2.754,0.638,4.237
		c0.194,1.483,0.381,3.025,0.562,4.626c0.284-1.136,0.665-2.354,1.142-3.658c0.477-1.303,1.154-2.935,2.031-4.896l10.137-22.258
		h16.714l1.354,56.668H62.57l-0.155-27.018c0-1.522,0.026-3.025,0.077-4.51c0.052-1.483,0.129-2.974,0.232-4.471
		c-0.567,1.909-1.535,4.297-2.901,7.161c-0.259,0.567-0.452,0.993-0.581,1.277l-12.923,27.56H37.15l-5.302-27.521
		c-0.284-1.394-0.535-2.793-0.754-4.2c-0.219-1.406-0.418-2.818-0.6-4.238c-0.284,1.678-0.587,3.266-0.909,4.762
		c-0.323,1.497-0.651,2.891-0.987,4.181l-7.854,27.018H6L6,178.988z"/>
	<polygon fill="#3A4747" points="83.226,178.988 92.202,122.32 107.637,122.32 98.661,178.988 83.226,178.988 	"/>
	<path fill="#3A4747" d="M162.001,125.003l-2.552,15.626c-2.166-1.877-4.524-3.297-7.077-4.261s-5.208-1.445-7.968-1.445
		c-4.692,0-8.56,1.637-11.602,4.91c-3.042,3.273-4.563,7.45-4.563,12.528c0,4.587,1.276,8.138,3.829,10.651
		c2.552,2.514,6.162,3.771,10.828,3.771c2.011,0,4.08-0.244,6.207-0.733c2.127-0.488,4.364-1.222,6.71-2.199l-2.359,14.667
		c-1.935,0.619-4.07,1.09-6.405,1.413c-2.334,0.323-4.856,0.484-7.565,0.484c-8.074,0-14.543-2.503-19.406-7.508
		c-4.863-5.005-7.295-11.648-7.295-19.93c0-3.999,0.626-7.811,1.877-11.436s3.089-6.92,5.514-9.888
		c2.837-3.458,6.378-6.102,10.622-7.934c4.244-1.831,8.997-2.747,14.258-2.747c2.992,0,5.894,0.336,8.706,1.007
		C156.57,122.652,159.318,123.66,162.001,125.003L162.001,125.003z"/>
	<path fill-rule="evenodd" clip-rule="evenodd" fill="#3A4747" d="M177.663,178.988h-15.046l8.935-56.668h15.084
		c4.546,0,7.93,0.161,10.152,0.484c2.222,0.322,4.146,0.87,5.773,1.646c2.867,1.342,5.037,3.232,6.509,5.671
		c1.473,2.438,2.208,5.361,2.208,8.768c0,4.697-1.402,8.626-4.208,11.787c-2.806,3.161-6.665,5.142-11.578,5.941l13.807,22.371
		h-17.288l-10.946-21.637L177.663,178.988L177.663,178.988z M182.497,148.237h4.758c2.991,0,5.286-0.684,6.885-2.052
		c1.599-1.367,2.398-3.341,2.398-5.921c0-2.426-0.748-4.187-2.243-5.283c-1.496-1.096-3.894-1.645-7.194-1.645h-2.244
		L182.497,148.237L182.497,148.237z"/>
	<path fill-rule="evenodd" clip-rule="evenodd" fill="#3A4747" d="M248.83,134.923c-4.62,0-8.491,1.662-11.614,4.987
		c-3.122,3.325-4.684,7.448-4.684,12.372c0,4.355,1.246,7.835,3.736,10.438c2.49,2.604,5.813,3.904,9.967,3.904
		c4.542,0,8.4-1.72,11.575-5.161c3.174-3.44,4.761-7.636,4.761-12.584c0-4.072-1.291-7.416-3.871-10.032
		C256.118,136.23,252.829,134.923,248.83,134.923L248.83,134.923z M245.366,180.494c-4.051,0-7.735-0.555-11.051-1.664
		s-6.264-2.773-8.844-4.992c-2.709-2.373-4.825-5.302-6.348-8.785c-1.522-3.482-2.284-7.186-2.284-11.106
		c0-4.231,0.652-8.185,1.955-11.861c1.303-3.676,3.245-7.011,5.825-10.004c3.02-3.56,6.703-6.287,11.051-8.184
		c4.348-1.896,9.063-2.845,14.146-2.845c8.515,0,15.398,2.451,20.649,7.353c5.251,4.902,7.876,11.274,7.876,19.117
		c0,4.206-0.664,8.159-1.993,11.861c-1.329,3.702-3.271,7.037-5.825,10.004c-3.123,3.637-6.813,6.397-11.07,8.281
		S250.501,180.494,245.366,180.494L245.366,180.494z"/>
	<path fill-rule="evenodd" clip-rule="evenodd" fill="#A4292F" d="M353.576,147.16h1.431c4.899,0,8.214-0.515,9.942-1.546
		c1.728-1.031,2.591-2.785,2.591-5.26c0-2.089-0.741-3.616-2.224-4.583c-1.483-0.967-3.811-1.45-6.982-1.45h-2.708L353.576,147.16
		L353.576,147.16z M333.461,178.942l9.012-56.668h15.551c4.313,0,7.555,0.174,9.724,0.522c2.17,0.349,4.056,0.936,5.657,1.761
		c2.892,1.472,5.055,3.484,6.488,6.04c1.434,2.555,2.15,5.613,2.15,9.175c0,3.536-0.769,6.813-2.305,9.834
		c-1.537,3.02-3.623,5.343-6.257,6.968c-1.55,0.955-3.384,1.633-5.501,2.033c-2.118,0.399-5.437,0.6-9.957,0.6h-2.32h-4.023
		l-3.173,19.735H333.461L333.461,178.942z"/>
	<path fill-rule="evenodd" clip-rule="evenodd" fill="#A4292F" d="M373.434,178.942l28.36-56.668h18.966l12.036,56.668h-15.365
		l-2.284-10.7h-19.817l-5.418,10.7H373.434L373.434,178.942z M401.02,155.641h11.96l-2.594-13.238
		c-0.258-1.315-0.451-2.489-0.58-3.522c-0.13-1.032-0.207-2-0.232-2.903c-0.542,1.549-1.038,2.91-1.49,4.084
		c-0.451,1.174-0.806,2.045-1.064,2.613L401.02,155.641L401.02,155.641z"/>
	<path fill="#A4292F" d="M444.637,178.942l3.985-25.277l-15.938-31.391h16.866l6.189,14.477c0.335,0.748,0.677,1.594,1.025,2.535
		c0.348,0.941,0.689,1.941,1.025,3c0.696-1.626,1.258-2.884,1.684-3.773c0.426-0.891,0.767-1.529,1.024-1.917l10.058-14.321h17.447
		l-24.179,31.546l-3.945,25.122H444.637L444.637,178.942z"/>
	<path fill="#A4292F" d="M478.773,178.942l17.336-56.668h16.831l3.791,21.947c0.232,1.342,0.445,2.754,0.639,4.237
		c0.193,1.484,0.381,3.026,0.562,4.626c0.284-1.136,0.664-2.354,1.142-3.658c0.478-1.303,1.154-2.935,2.031-4.896l10.137-22.257
		h16.715l1.354,56.668h-13.968l-0.154-27.018c0-1.522,0.025-3.026,0.077-4.51c0.052-1.484,0.129-2.975,0.232-4.472
		c-0.567,1.91-1.534,4.297-2.902,7.162c-0.258,0.567-0.451,0.993-0.58,1.276l-12.924,27.561h-9.169l-5.302-27.521
		c-0.283-1.395-0.535-2.794-0.754-4.2s-0.418-2.819-0.6-4.238c-0.283,1.678-0.587,3.265-0.909,4.761
		c-0.322,1.497-0.651,2.891-0.986,4.182l-7.854,27.018H478.773L478.773,178.942z"/>
	<polygon fill="#A4292F" points="572.869,166.34 590.403,166.34 588.43,178.942 555.762,178.942 564.702,122.274 597.371,122.274 
		595.318,135.352 577.786,135.352 576.354,144.624 592.61,144.624 590.713,156.909 574.379,156.909 572.869,166.34 	"/>
	<path fill-rule="evenodd" clip-rule="evenodd" fill="#A4292F" d="M598.838,178.942l8.941-56.668h17.303l11.96,27.985
		c0.104,0.232,0.271,0.632,0.503,1.2c1.316,3.07,2.233,5.754,2.749,8.051v-1.432c0-1.032,0.059-2.174,0.175-3.426
		c0.116-1.251,0.29-2.768,0.522-4.548l4.374-27.831h15.134l-8.941,56.668h-16.645l-12.695-28.837
		c-0.929-2.091-1.632-3.819-2.11-5.188c-0.478-1.367-0.884-2.735-1.219-4.103v1.587c0,1.032-0.045,2.122-0.136,3.271
		c-0.09,1.148-0.251,2.678-0.483,4.587l-4.297,28.683H598.838L598.838,178.942z"/>
	<polygon fill="#A4292F" points="671.412,178.942 678.297,135.431 665.608,135.431 667.774,122.274 707.772,122.274 
		705.606,135.431 693.499,135.431 686.613,178.942 671.412,178.942 	"/>
	<path fill-rule="evenodd" clip-rule="evenodd" fill="#3A4747" d="M282.49,77.093v3.18h1.163c0.717,0,1.252-0.128,1.606-0.385
		c0.354-0.256,0.53-0.641,0.53-1.154c0-0.571-0.184-0.987-0.552-1.249c-0.368-0.262-0.959-0.393-1.773-0.393H282.49L282.49,77.093z
		 M279.221,75.042h4.781c1.682,0,2.959,0.291,3.834,0.872s1.312,1.438,1.312,2.572c0,0.784-0.222,1.458-0.666,2.019
		c-0.444,0.562-1.062,0.959-1.853,1.191l2.635,5.234h-3.591l-2.238-4.726h-0.945v4.726h-3.269V75.042L279.221,75.042z
		 M283.813,72.367c-1.202,0-2.327,0.213-3.374,0.638s-1.988,1.043-2.822,1.854c-0.873,0.869-1.537,1.849-1.993,2.94
		c-0.456,1.091-0.683,2.24-0.683,3.447c0,1.168,0.213,2.274,0.64,3.316c0.427,1.043,1.057,1.984,1.891,2.825
		c0.844,0.869,1.808,1.535,2.895,1.999c1.086,0.463,2.225,0.695,3.417,0.695c1.173,0,2.3-0.22,3.382-0.659
		c1.081-0.439,2.048-1.069,2.901-1.89c0.853-0.82,1.503-1.769,1.949-2.846s0.669-2.223,0.669-3.44c0-1.198-0.213-2.325-0.64-3.382
		c-0.426-1.057-1.047-1.996-1.861-2.817c-0.863-0.878-1.835-1.545-2.916-1.999S285.034,72.367,283.813,72.367L283.813,72.367z
		 M283.805,70.376c1.509,0,2.931,0.278,4.267,0.834c1.335,0.557,2.52,1.367,3.555,2.431c0.977,1.006,1.725,2.158,2.242,3.455
		s0.776,2.675,0.776,4.136c0,1.5-0.273,2.908-0.82,4.223c-0.547,1.316-1.342,2.472-2.387,3.469
		c-1.055,1.016-2.239,1.794-3.555,2.336c-1.315,0.542-2.675,0.813-4.078,0.813c-1.461,0-2.849-0.281-4.165-0.842
		c-1.315-0.561-2.491-1.378-3.526-2.452c-1.016-1.045-1.792-2.213-2.329-3.505c-0.537-1.292-0.805-2.639-0.805-4.042
		c0-1.461,0.285-2.864,0.856-4.208c0.57-1.345,1.388-2.54,2.453-3.584c1.016-1.006,2.162-1.768,3.439-2.286
		C281.004,70.635,282.364,70.376,283.805,70.376L283.805,70.376z"/>
	<path fill="#3A4747" d="M294.884,180.573c0,0,24.767-28.379-1.032-51.186c-25.799-22.807-32.919-25.696-47.058-38.802
		s-13.932-21.671-0.413-38.286c13.519-16.615,8.152-26.005-1.651-26.935c-9.804-0.928-46.542,0.929-73.373,6.811
		c-26.831,5.882-75.127,12.796-80.391,14.035c-5.263,1.238,76.779-22.601,84.622-24.251c7.843-1.651,33.229-7.843,43.136-9.288
		c9.907-1.445,26.625-2.477,37.151-0.826c10.526,1.651,39.937,13.416,11.868,34.261c-28.07,20.846-21.362,35.707-4.541,49.225
		c16.821,13.52,46.852,31.682,49.329,51.806C315.007,167.261,294.884,180.573,294.884,180.573L294.884,180.573z"/>
</g>
</svg>
